<?xml version="1.0" encoding="UTF-8" standalone="no"?>
<!DOCTYPE svg PUBLIC "-//W3C//DTD SVG 1.1//EN"
 "http://www.w3.org/Graphics/SVG/1.1/DTD/svg11.dtd">
<!-- Generated by graphviz version 7.0.5 (20221223.1930)
 -->
<!-- Pages: 1 -->
<svg width="846pt" height="1307pt"
 viewBox="0.00 0.00 846.00 1307.00" xmlns="http://www.w3.org/2000/svg" xmlns:xlink="http://www.w3.org/1999/xlink">
<g id="graph0" class="graph" transform="scale(1 1) rotate(0) translate(4 1303)">
<polygon fill="#140e52" stroke="none" points="-4,4 -4,-1303 842,-1303 842,4 -4,4"/>
<text text-anchor="middle" x="419" y="-1263" font-family="renogare" font-size="40.00" fill="#ffffff">Rutile Dust &#45;&gt; Hot Titanium Processing</text>
<!-- source -->
<g id="node1" class="node">
<title>source</title>
<polygon fill="white" stroke="none" points="549.83,-1192.5 94.83,-1192.5 94.83,-1144.5 549.83,-1144.5 549.83,-1192.5"/>
<text text-anchor="start" x="299.83" y="-1177.3" font-family="noto sans" font-size="14.00">source</text>
<polygon fill="none" stroke="black" points="97.33,-1146.5 97.33,-1167.5 178.33,-1167.5 178.33,-1146.5 97.33,-1146.5"/>
<text text-anchor="start" x="100.33" y="-1153.3" font-family="noto sans" font-size="14.00">Rutile Dust</text>
<polygon fill="none" stroke="black" points="178.33,-1146.5 178.33,-1167.5 269.33,-1167.5 269.33,-1146.5 178.33,-1146.5"/>
<text text-anchor="start" x="181.33" y="-1153.3" font-family="noto sans" font-size="14.00">Carbon Dust</text>
<polygon fill="none" stroke="black" points="269.33,-1146.5 269.33,-1167.5 333.33,-1167.5 333.33,-1146.5 269.33,-1146.5"/>
<text text-anchor="start" x="272.33" y="-1153.3" font-family="noto sans" font-size="14.00">Chlorine</text>
<polygon fill="none" stroke="black" points="333.33,-1146.5 333.33,-1167.5 426.33,-1167.5 426.33,-1146.5 333.33,-1146.5"/>
<text text-anchor="start" x="336.33" y="-1153.3" font-family="noto sans" font-size="14.00">Sodium Dust</text>
<polygon fill="none" stroke="black" points="426.33,-1146.5 426.33,-1167.5 548.33,-1167.5 548.33,-1146.5 426.33,-1146.5"/>
<text text-anchor="start" x="429.33" y="-1153.3" font-family="noto sans" font-size="14.00">Magnesium Dust</text>
</g>
<!-- 0 -->
<g id="node3" class="node">
<title>0</title>
<polygon fill="lightcyan" stroke="none" points="359.83,-982 66.83,-982 66.83,-864 359.83,-864 359.83,-982"/>
<polygon fill="none" stroke="black" points="69.33,-959 69.33,-980 168.33,-980 168.33,-959 69.33,-959"/>
<text text-anchor="start" x="81.33" y="-965.8" font-family="noto sans" font-size="14.00">Rutile Dust</text>
<polygon fill="none" stroke="black" points="168.33,-959 168.33,-980 277.33,-980 277.33,-959 168.33,-959"/>
<text text-anchor="start" x="180.33" y="-965.8" font-family="noto sans" font-size="14.00">Carbon Dust</text>
<polygon fill="none" stroke="black" points="277.33,-959 277.33,-980 358.33,-980 358.33,-959 277.33,-959"/>
<text text-anchor="start" x="288.83" y="-965.8" font-family="noto sans" font-size="14.00">Chlorine</text>
<text text-anchor="start" x="106.33" y="-941.8" font-family="noto sans" font-size="14.00">1.0x HV Large Chemical Reactor</text>
<text text-anchor="start" x="174.33" y="-926.8" font-family="noto sans" font-size="14.00">Cycle: 20.0s</text>
<text text-anchor="start" x="144.33" y="-911.8" font-family="noto sans" font-size="14.00">Amoritized: 480 EU/t</text>
<text text-anchor="start" x="138.83" y="-896.8" font-family="noto sans" font-size="14.00">Per Machine: 480 EU/t</text>
<polygon fill="none" stroke="black" points="69.33,-866 69.33,-887 196.33,-887 196.33,-866 69.33,-866"/>
<text text-anchor="start" x="72.33" y="-872.8" font-family="noto sans" font-size="14.00">Carbon Monoxide</text>
<polygon fill="none" stroke="black" points="196.33,-866 196.33,-887 358.33,-887 358.33,-866 196.33,-866"/>
<text text-anchor="start" x="199.33" y="-872.8" font-family="noto sans" font-size="14.00">Titanium Tetrachloride</text>
</g>
<!-- source&#45;&gt;0 -->
<g id="edge1" class="edge">
<title>source:s&#45;&gt;0:n</title>
<path fill="none" stroke="#ff6961" d="M137.3,-1140.83C136.56,-1074.94 120.26,-1055.15 118.48,-992.35"/>
<polygon fill="#ff6961" stroke="#ff6961" points="142.32,-1144.47 132.32,-1144.53 132.31,-1142.53 142.31,-1142.47 142.32,-1144.47"/>
<polyline fill="none" stroke="#ff6961" points="137.33,-1145.5 137.3,-1140.5"/>
<polygon fill="#ff6961" stroke="#ff6961" points="121.98,-992.46 118.35,-982.51 114.99,-992.56 121.98,-992.46"/>
<text text-anchor="middle" x="96.85" y="-990.4" font-family="noto sans" font-size="13.00" fill="#ff9d91">(0.05/s)</text>
<text text-anchor="middle" x="158.91" y="-1129.48" font-family="noto sans" font-size="13.00" fill="#ff9d91">(0.05/s)</text>
</g>
<!-- source&#45;&gt;0 -->
<g id="edge2" class="edge">
<title>source:s&#45;&gt;0:n</title>
<path fill="none" stroke="#42d6a4" d="M223.33,-1140.86C223.33,-1075.37 223.33,-1054.77 223.33,-992.28"/>
<polygon fill="#42d6a4" stroke="#42d6a4" points="228.33,-1144.5 218.33,-1144.5 218.33,-1142.5 228.33,-1142.5 228.33,-1144.5"/>
<polyline fill="none" stroke="#42d6a4" points="223.33,-1145.5 223.33,-1140.5"/>
<polygon fill="#42d6a4" stroke="#42d6a4" points="226.83,-992.51 223.33,-982.51 219.83,-992.51 226.83,-992.51"/>
<text text-anchor="middle" x="201.67" y="-990.1" font-family="noto sans" font-size="13.00" fill="#63fff6">(0.1/s)</text>
<text text-anchor="middle" x="244.98" y="-1129.6" font-family="noto sans" font-size="13.00" fill="#63fff6">(0.1/s)</text>
</g>
<!-- source&#45;&gt;0 -->
<g id="edge3" class="edge">
<title>source:s&#45;&gt;0:n</title>
<path fill="none" stroke="#08cad1" d="M301.35,-1140.84C302.01,-1075.03 316.59,-1055.08 318.18,-992.34"/>
<polygon fill="#08cad1" stroke="#08cad1" points="306.33,-1144.53 296.33,-1144.48 296.34,-1142.48 306.34,-1142.53 306.33,-1144.53"/>
<polyline fill="none" stroke="#08cad1" points="301.33,-1145.5 301.35,-1140.5"/>
<polygon fill="#08cad1" stroke="#08cad1" points="321.68,-992.56 318.31,-982.51 314.68,-992.47 321.68,-992.56"/>
<text text-anchor="middle" x="296.52" y="-989.83" font-family="noto sans" font-size="13.00" fill="#0cffff">(200.0/s)</text>
<text text-anchor="middle" x="323.04" y="-1129.71" font-family="noto sans" font-size="13.00" fill="#0cffff">(200.0/s)</text>
</g>
<!-- 2 -->
<g id="node5" class="node">
<title>2</title>
<polygon fill="chartreuse" stroke="none" points="489.33,-756 167.33,-756 167.33,-608 489.33,-608 489.33,-756"/>
<polygon fill="none" stroke="black" points="169.33,-733 169.33,-754 308.33,-754 308.33,-733 169.33,-733"/>
<text text-anchor="start" x="180.83" y="-739.8" font-family="noto sans" font-size="14.00">Magnesium Dust</text>
<polygon fill="none" stroke="black" points="308.33,-733 308.33,-754 487.33,-754 487.33,-733 308.33,-733"/>
<text text-anchor="start" x="319.83" y="-739.8" font-family="noto sans" font-size="14.00">Titanium Tetrachloride</text>
<text text-anchor="start" x="230.33" y="-715.8" font-family="noto sans" font-size="14.00">1.0x EV Electric Blast Furnace</text>
<text text-anchor="start" x="288.83" y="-700.8" font-family="noto sans" font-size="14.00">Cycle: 20.0s</text>
<text text-anchor="start" x="252.33" y="-685.8" font-family="noto sans" font-size="14.00">Amoritized: 1.92K EU/t</text>
<text text-anchor="start" x="246.83" y="-670.8" font-family="noto sans" font-size="14.00">Per Machine: 1.92K EU/t</text>
<text text-anchor="start" x="269.33" y="-655.8" font-family="noto sans" font-size="14.00">Base Heat: 2140K</text>
<text text-anchor="start" x="282.33" y="-640.8" font-family="noto sans" font-size="14.00">Coils: Kanthal</text>
<polygon fill="none" stroke="black" points="169.33,-610 169.33,-631 304.33,-631 304.33,-610 169.33,-610"/>
<text text-anchor="start" x="172.33" y="-616.8" font-family="noto sans" font-size="14.00">Hot Titanium Ingot</text>
<polygon fill="none" stroke="black" points="304.33,-610 304.33,-631 487.33,-631 487.33,-610 304.33,-610"/>
<text text-anchor="start" x="307.33" y="-616.8" font-family="noto sans" font-size="14.00">Magnesium Chloride Dust</text>
</g>
<!-- source&#45;&gt;2 -->
<g id="edge15" class="edge">
<title>source:s&#45;&gt;2:n</title>
<path fill="none" stroke="#f8f38d" d="M487.31,-1140.82C486.62,-1010.24 456.51,-970.55 377.33,-864 332.87,-804.19 247.57,-830.45 239.02,-766.13"/>
<polygon fill="#f8f38d" stroke="#f8f38d" points="492.32,-1144.49 482.32,-1144.51 482.32,-1142.51 492.32,-1142.49 492.32,-1144.49"/>
<polyline fill="none" stroke="#f8f38d" points="487.33,-1145.5 487.31,-1140.5"/>
<polygon fill="#f8f38d" stroke="#f8f38d" points="242.54,-766.27 238.42,-756.51 235.55,-766.71 242.54,-766.27"/>
<text text-anchor="middle" x="217.5" y="-765.43" font-family="noto sans" font-size="13.00" fill="#ffffd3">(0.1/s)</text>
<text text-anchor="middle" x="508.94" y="-1129.54" font-family="noto sans" font-size="13.00" fill="#ffffd3">(0.1/s)</text>
</g>
<!-- 3 -->
<g id="node6" class="node">
<title>3</title>
<polygon fill="lightcyan" stroke="none" points="587.33,-500 307.33,-500 307.33,-382 587.33,-382 587.33,-500"/>
<polygon fill="none" stroke="black" points="309.33,-477 309.33,-498 492.33,-498 492.33,-477 309.33,-477"/>
<text text-anchor="start" x="312.33" y="-483.8" font-family="noto sans" font-size="14.00">Magnesium Chloride Dust</text>
<polygon fill="none" stroke="black" points="492.33,-477 492.33,-498 585.33,-498 585.33,-477 492.33,-477"/>
<text text-anchor="start" x="495.33" y="-483.8" font-family="noto sans" font-size="14.00">Sodium Dust</text>
<text text-anchor="start" x="361.33" y="-459.8" font-family="noto sans" font-size="14.00">1.0x HV Chemical Reactor</text>
<text text-anchor="start" x="407.83" y="-444.8" font-family="noto sans" font-size="14.00">Cycle: 10.0s</text>
<text text-anchor="start" x="377.83" y="-429.8" font-family="noto sans" font-size="14.00">Amoritized: 300 EU/t</text>
<text text-anchor="start" x="372.33" y="-414.8" font-family="noto sans" font-size="14.00">Per Machine: 300 EU/t</text>
<polygon fill="none" stroke="black" points="309.33,-384 309.33,-405 493.33,-405 493.33,-384 309.33,-384"/>
<text text-anchor="start" x="343.33" y="-390.8" font-family="noto sans" font-size="14.00">Magnesium Dust</text>
<polygon fill="none" stroke="black" points="493.33,-384 493.33,-405 585.33,-405 585.33,-384 493.33,-384"/>
<text text-anchor="start" x="526.83" y="-390.8" font-family="noto sans" font-size="14.00">Salt</text>
</g>
<!-- source&#45;&gt;3 -->
<g id="edge10" class="edge">
<title>source:s&#45;&gt;3:n</title>
<path fill="none" stroke="#ff6961" d="M380.38,-1140.55C382.04,-1066.79 421.03,-1054.56 445.33,-982 513.54,-778.27 538.45,-719.74 539.3,-510.38"/>
<polygon fill="#ff6961" stroke="#ff6961" points="385.34,-1144.56 375.34,-1144.44 375.36,-1142.44 385.36,-1142.56 385.34,-1144.56"/>
<polyline fill="none" stroke="#ff6961" points="380.33,-1145.5 380.38,-1140.5"/>
<polygon fill="#ff6961" stroke="#ff6961" points="542.8,-510.52 539.32,-500.51 535.8,-510.51 542.8,-510.52"/>
<text text-anchor="middle" x="517.65" y="-508.06" font-family="noto sans" font-size="13.00" fill="#ff9d91">(0.2/s)</text>
<text text-anchor="middle" x="402.11" y="-1129.84" font-family="noto sans" font-size="13.00" fill="#ff9d91">(0.2/s)</text>
</g>
<!-- sink -->
<g id="node2" class="node">
<title>sink</title>
<polygon fill="white" stroke="none" points="598.33,-48 30.33,-48 30.33,0 598.33,0 598.33,-48"/>
<polygon fill="none" stroke="black" points="32.33,-25 32.33,-46 91.33,-46 91.33,-25 32.33,-25"/>
<text text-anchor="start" x="35.33" y="-31.8" font-family="noto sans" font-size="14.00">Oxygen</text>
<polygon fill="none" stroke="black" points="91.33,-25 91.33,-46 182.33,-46 182.33,-25 91.33,-25"/>
<text text-anchor="start" x="94.33" y="-31.8" font-family="noto sans" font-size="14.00">Carbon Dust</text>
<polygon fill="none" stroke="black" points="182.33,-25 182.33,-46 317.33,-46 317.33,-25 182.33,-25"/>
<text text-anchor="start" x="185.33" y="-31.8" font-family="noto sans" font-size="14.00">Hot Titanium Ingot</text>
<polygon fill="none" stroke="black" points="317.33,-25 317.33,-46 381.33,-46 381.33,-25 317.33,-25"/>
<text text-anchor="start" x="320.33" y="-31.8" font-family="noto sans" font-size="14.00">Chlorine</text>
<polygon fill="none" stroke="black" points="381.33,-25 381.33,-46 474.33,-46 474.33,-25 381.33,-25"/>
<text text-anchor="start" x="384.33" y="-31.8" font-family="noto sans" font-size="14.00">Sodium Dust</text>
<polygon fill="none" stroke="black" points="474.33,-25 474.33,-46 596.33,-46 596.33,-25 474.33,-25"/>
<text text-anchor="start" x="477.33" y="-31.8" font-family="noto sans" font-size="14.00">Magnesium Dust</text>
<text text-anchor="start" x="300.33" y="-7.8" font-family="noto sans" font-size="14.00">sink</text>
</g>
<!-- 1 -->
<g id="node4" class="node">
<title>1</title>
<polygon fill="lightcyan" stroke="none" points="184.33,-274 30.33,-274 30.33,-156 184.33,-156 184.33,-274"/>
<polygon fill="none" stroke="black" points="32.33,-251 32.33,-272 182.33,-272 182.33,-251 32.33,-251"/>
<text text-anchor="start" x="46.83" y="-257.8" font-family="noto sans" font-size="14.00">Carbon Monoxide</text>
<text text-anchor="start" x="35.33" y="-233.8" font-family="noto sans" font-size="14.00">0.56x MV Electrolyzer</text>
<text text-anchor="start" x="72.33" y="-218.8" font-family="noto sans" font-size="14.00">Cycle: 5.6s</text>
<text text-anchor="start" x="41.83" y="-203.8" font-family="noto sans" font-size="14.00">Amoritized: 34 EU/t</text>
<text text-anchor="start" x="36.33" y="-188.8" font-family="noto sans" font-size="14.00">Per Machine: 60 EU/t</text>
<polygon fill="none" stroke="black" points="32.33,-158 32.33,-179 91.33,-179 91.33,-158 32.33,-158"/>
<text text-anchor="start" x="35.33" y="-164.8" font-family="noto sans" font-size="14.00">Oxygen</text>
<polygon fill="none" stroke="black" points="91.33,-158 91.33,-179 182.33,-179 182.33,-158 91.33,-158"/>
<text text-anchor="start" x="94.33" y="-164.8" font-family="noto sans" font-size="14.00">Carbon Dust</text>
</g>
<!-- 0&#45;&gt;1 -->
<g id="edge4" class="edge">
<title>0:s&#45;&gt;1:n</title>
<path fill="none" stroke="#59adf6" d="M132.32,-860.01C132.01,-604.61 108.04,-536.65 107.34,-284.37"/>
<polygon fill="#59adf6" stroke="#59adf6" points="137.32,-864 127.32,-864 127.32,-862 137.32,-862 137.32,-864"/>
<polyline fill="none" stroke="#59adf6" points="132.33,-865 132.32,-860"/>
<polygon fill="#59adf6" stroke="#59adf6" points="110.84,-284.51 107.33,-274.51 103.84,-284.52 110.84,-284.51"/>
<text text-anchor="middle" x="85.69" y="-282.13" font-family="noto sans" font-size="13.00" fill="#85ffff">(100.0/s)</text>
<text text-anchor="middle" x="153.97" y="-849.09" font-family="noto sans" font-size="13.00" fill="#85ffff">(100.0/s)</text>
</g>
<!-- 0&#45;&gt;2 -->
<g id="edge5" class="edge">
<title>0:s&#45;&gt;2:n</title>
<path fill="none" stroke="#9d94ff" d="M277.52,-860.07C282.61,-797.8 385.18,-822.56 397.18,-766.46"/>
<polygon fill="#9d94ff" stroke="#9d94ff" points="282.36,-864.2 272.37,-863.8 272.45,-861.8 282.44,-862.2 282.36,-864.2"/>
<polyline fill="none" stroke="#9d94ff" points="277.33,-865 277.52,-860"/>
<polygon fill="#9d94ff" stroke="#9d94ff" points="400.66,-766.8 398.18,-756.51 393.7,-766.11 400.66,-766.8"/>
<text text-anchor="middle" x="375.54" y="-761.89" font-family="noto sans" font-size="13.00" fill="#ebdeff">(50.0/s)</text>
<text text-anchor="middle" x="299.46" y="-849.97" font-family="noto sans" font-size="13.00" fill="#ebdeff">(50.0/s)</text>
</g>
<!-- 1&#45;&gt;sink -->
<g id="edge6" class="edge">
<title>1:s&#45;&gt;sink:n</title>
<path fill="none" stroke="#f8f38d" d="M61.33,-152.25C61.33,-111.13 61.33,-96.74 61.33,-58.47"/>
<polygon fill="#f8f38d" stroke="#f8f38d" points="66.33,-156 56.33,-156 56.33,-154 66.33,-154 66.33,-156"/>
<polyline fill="none" stroke="#f8f38d" points="61.33,-157 61.33,-152"/>
<polygon fill="#f8f38d" stroke="#f8f38d" points="64.83,-58.51 61.33,-48.51 57.83,-58.51 64.83,-58.51"/>
<text text-anchor="middle" x="39.67" y="-56.1" font-family="noto sans" font-size="13.00" fill="#ffffd3">(100.0/s)</text>
<text text-anchor="middle" x="82.98" y="-141.1" font-family="noto sans" font-size="13.00" fill="#ffffd3">(100.0/s)</text>
</g>
<!-- 1&#45;&gt;sink -->
<g id="edge7" class="edge">
<title>1:s&#45;&gt;sink:n</title>
<path fill="none" stroke="#42d6a4" d="M137.32,-152.25C137.27,-111.12 136.48,-96.74 136.34,-58.47"/>
<polygon fill="#42d6a4" stroke="#42d6a4" points="142.32,-156 132.32,-156 132.32,-154 142.32,-154 142.32,-156"/>
<polyline fill="none" stroke="#42d6a4" points="137.33,-157 137.32,-152"/>
<polygon fill="#42d6a4" stroke="#42d6a4" points="139.85,-58.51 136.33,-48.51 132.85,-58.52 139.85,-58.51"/>
<text text-anchor="middle" x="114.7" y="-56.14" font-family="noto sans" font-size="13.00" fill="#63fff6">(0.1/s)</text>
<text text-anchor="middle" x="158.97" y="-141.09" font-family="noto sans" font-size="13.00" fill="#63fff6">(0.1/s)</text>
</g>
<!-- 2&#45;&gt;sink -->
<g id="edge8" class="edge">
<title>2:s&#45;&gt;sink:n</title>
<path fill="none" stroke="#ffb480" d="M236.33,-604.26C236.49,-362.2 248.93,-297.28 249.32,-58.5"/>
<polygon fill="#ffb480" stroke="#ffb480" points="241.33,-608 231.33,-608 231.33,-606 241.33,-606 241.33,-608"/>
<polyline fill="none" stroke="#ffb480" points="236.33,-609 236.33,-604"/>
<polygon fill="#ffb480" stroke="#ffb480" points="252.82,-58.52 249.32,-48.51 245.82,-58.51 252.82,-58.52"/>
<text text-anchor="middle" x="227.66" y="-56.08" font-family="noto sans" font-size="13.00" fill="#ffffc0">(0.05/s)</text>
<text text-anchor="middle" x="257.98" y="-593.11" font-family="noto sans" font-size="13.00" fill="#ffffc0">(0.05/s)</text>
</g>
<!-- 2&#45;&gt;3 -->
<g id="edge9" class="edge">
<title>2:s&#45;&gt;3:n</title>
<path fill="none" stroke="#c780e8" d="M396.34,-604.25C396.57,-563.1 399.71,-548.76 400.25,-510.47"/>
<polygon fill="#c780e8" stroke="#c780e8" points="401.33,-608.01 391.33,-607.99 391.33,-605.99 401.33,-606.01 401.33,-608.01"/>
<polyline fill="none" stroke="#c780e8" points="396.33,-609 396.34,-604"/>
<polygon fill="#c780e8" stroke="#c780e8" points="403.75,-510.54 400.31,-500.51 396.75,-510.49 403.75,-510.54"/>
<text text-anchor="middle" x="378.59" y="-507.95" font-family="noto sans" font-size="13.00" fill="#ffc0ff">(0.3/s)</text>
<text text-anchor="middle" x="418.01" y="-593.16" font-family="noto sans" font-size="13.00" fill="#ffc0ff">(0.3/s)</text>
</g>
<!-- 3&#45;&gt;sink -->
<g id="edge14" class="edge">
<title>3:s&#45;&gt;sink:n</title>
<path fill="none" stroke="#f8f38d" d="M401.45,-378.29C404.64,-319.89 467.75,-330.09 494.33,-274 536.56,-184.88 535.48,-152.03 535.34,-58.41"/>
<polygon fill="#f8f38d" stroke="#f8f38d" points="406.35,-382.13 396.35,-381.87 396.41,-379.87 406.4,-380.13 406.35,-382.13"/>
<polyline fill="none" stroke="#f8f38d" points="401.33,-383 401.46,-378"/>
<polygon fill="#f8f38d" stroke="#f8f38d" points="538.84,-58.51 535.33,-48.51 531.84,-58.52 538.84,-58.51"/>
<text text-anchor="middle" x="513.69" y="-56.12" font-family="noto sans" font-size="13.00" fill="#ffffd3">(0.1/s)</text>
<text text-anchor="middle" x="423.3" y="-367.68" font-family="noto sans" font-size="13.00" fill="#ffffd3">(0.1/s)</text>
</g>
<!-- 4 -->
<g id="node7" class="node">
<title>4</title>
<polygon fill="lightcyan" stroke="none" points="475.83,-274 314.83,-274 314.83,-156 475.83,-156 475.83,-274"/>
<polygon fill="none" stroke="black" points="317.33,-251 317.33,-272 474.33,-272 474.33,-251 317.33,-251"/>
<text text-anchor="start" x="383.33" y="-257.8" font-family="noto sans" font-size="14.00">Salt</text>
<text text-anchor="start" x="330.83" y="-233.8" font-family="noto sans" font-size="14.00">3.2x LV Electrolyzer</text>
<text text-anchor="start" x="356.33" y="-218.8" font-family="noto sans" font-size="14.00">Cycle: 16.0s</text>
<text text-anchor="start" x="330.33" y="-203.8" font-family="noto sans" font-size="14.00">Amoritized: 96 EU/t</text>
<text text-anchor="start" x="324.83" y="-188.8" font-family="noto sans" font-size="14.00">Per Machine: 30 EU/t</text>
<polygon fill="none" stroke="black" points="317.33,-158 317.33,-179 381.33,-179 381.33,-158 317.33,-158"/>
<text text-anchor="start" x="320.33" y="-164.8" font-family="noto sans" font-size="14.00">Chlorine</text>
<polygon fill="none" stroke="black" points="381.33,-158 381.33,-179 474.33,-179 474.33,-158 381.33,-158"/>
<text text-anchor="start" x="384.33" y="-164.8" font-family="noto sans" font-size="14.00">Sodium Dust</text>
</g>
<!-- 3&#45;&gt;4 -->
<g id="edge11" class="edge">
<title>3:s&#45;&gt;4:n</title>
<path fill="none" stroke="#ffb480" d="M539.13,-378.01C533.56,-308.77 410.4,-346.89 397.43,-284.41"/>
<polygon fill="#ffb480" stroke="#ffb480" points="544.28,-381.81 534.29,-382.2 534.21,-380.2 544.2,-379.81 544.28,-381.81"/>
<polyline fill="none" stroke="#ffb480" points="539.33,-383 539.13,-378"/>
<polygon fill="#ffb480" stroke="#ffb480" points="400.92,-284.12 396.47,-274.51 393.95,-284.8 400.92,-284.12"/>
<text text-anchor="middle" x="375.98" y="-284.13" font-family="noto sans" font-size="13.00" fill="#ffffc0">(0.4/s)</text>
<text text-anchor="middle" x="560.47" y="-366.26" font-family="noto sans" font-size="13.00" fill="#ffffc0">(0.4/s)</text>
</g>
<!-- 4&#45;&gt;sink -->
<g id="edge12" class="edge">
<title>4:s&#45;&gt;sink:n</title>
<path fill="none" stroke="#08cad1" d="M349.33,-152.25C349.33,-111.13 349.33,-96.74 349.33,-58.47"/>
<polygon fill="#08cad1" stroke="#08cad1" points="354.33,-156 344.33,-156 344.33,-154 354.33,-154 354.33,-156"/>
<polyline fill="none" stroke="#08cad1" points="349.33,-157 349.33,-152"/>
<polygon fill="#08cad1" stroke="#08cad1" points="352.83,-58.51 349.33,-48.51 345.83,-58.51 352.83,-58.51"/>
<text text-anchor="middle" x="327.67" y="-56.1" font-family="noto sans" font-size="13.00" fill="#0cffff">(200.0/s)</text>
<text text-anchor="middle" x="370.98" y="-141.1" font-family="noto sans" font-size="13.00" fill="#0cffff">(200.0/s)</text>
</g>
<!-- 4&#45;&gt;sink -->
<g id="edge13" class="edge">
<title>4:s&#45;&gt;sink:n</title>
<path fill="none" stroke="#ff6961" d="M428.33,-152.25C428.33,-111.13 428.33,-96.74 428.33,-58.47"/>
<polygon fill="#ff6961" stroke="#ff6961" points="433.33,-156 423.33,-156 423.33,-154 433.33,-154 433.33,-156"/>
<polyline fill="none" stroke="#ff6961" points="428.33,-157 428.33,-152"/>
<polygon fill="#ff6961" stroke="#ff6961" points="431.83,-58.51 428.33,-48.51 424.83,-58.51 431.83,-58.51"/>
<text text-anchor="middle" x="406.67" y="-56.1" font-family="noto sans" font-size="13.00" fill="#ff9d91">(0.2/s)</text>
<text text-anchor="middle" x="449.98" y="-141.1" font-family="noto sans" font-size="13.00" fill="#ff9d91">(0.2/s)</text>
</g>
<!-- total_io_node -->
<g id="node8" class="node">
<title>total_io_node</title>
<polygon fill="#140e52" stroke="#ffffff" points="824.33,-1247 586.33,-1247 586.33,-1090 824.33,-1090 824.33,-1247"/>
<text text-anchor="start" x="598.33" y="-1228.3" font-family="noto sans" font-weight="bold" font-size="14.00" fill="white">Summary</text>
<text text-anchor="start" x="598.33" y="-1206.3" font-family="noto sans" font-size="14.00" fill="#ff6961">█ Rutile Dust</text>
<text text-anchor="start" x="766.33" y="-1206.3" font-family="noto sans" font-size="14.00" fill="crimson">&#45;0.05/s</text>
<text text-anchor="start" x="598.33" y="-1185.3" font-family="noto sans" font-size="14.00" fill="#ffb480">█ Hot Titanium Ingot</text>
<text text-anchor="start" x="771.33" y="-1185.3" font-family="noto sans" font-size="14.00" fill="chartreuse">0.05/s</text>
<text text-anchor="start" x="598.33" y="-1164.3" font-family="noto sans" font-size="14.00" fill="#f8f38d">█ Oxygen</text>
<text text-anchor="start" x="763.33" y="-1164.3" font-family="noto sans" font-size="14.00" fill="chartreuse">100.0/s</text>
<text text-anchor="start" x="598.33" y="-1143.3" font-family="noto sans" font-size="14.00" fill="white">Input EU/t:</text>
<text text-anchor="start" x="769.33" y="-1143.3" font-family="noto sans" font-size="14.00" fill="crimson">&#45;2.83K</text>
<text text-anchor="start" x="598.33" y="-1122.3" font-family="noto sans" font-size="14.00" fill="white">Total machine count:</text>
<text text-anchor="start" x="775.33" y="-1122.3" font-family="noto sans" font-size="14.00" fill="chartreuse">10.76</text>
<text text-anchor="start" x="598.33" y="-1101.3" font-family="noto sans" font-size="14.00" fill="white">Peak power draw:</text>
<text text-anchor="start" x="754.33" y="-1101.3" font-family="noto sans" font-size="14.00" fill="crimson">2.49A EV</text>
<polygon fill="#ffffff" stroke="#ffffff" points="594.33,-1220.5 594.33,-1220.5 816.33,-1220.5 816.33,-1220.5 594.33,-1220.5"/>
<polygon fill="#ffffff" stroke="#ffffff" points="594.33,-1157.5 594.33,-1157.5 751.33,-1157.5 751.33,-1157.5 594.33,-1157.5"/>
<polygon fill="#ffffff" stroke="#ffffff" points="751.33,-1157.5 751.33,-1157.5 816.33,-1157.5 816.33,-1157.5 751.33,-1157.5"/>
</g>
</g>
</svg>
