<?xml version="1.0" encoding="UTF-8" standalone="no"?>
<!DOCTYPE svg PUBLIC "-//W3C//DTD SVG 1.1//EN"
 "http://www.w3.org/Graphics/SVG/1.1/DTD/svg11.dtd">
<!-- Generated by graphviz version 7.0.5 (20221223.1930)
 -->
<!-- Pages: 1 -->
<svg width="859pt" height="1433pt"
 viewBox="0.00 0.00 858.65 1433.00" xmlns="http://www.w3.org/2000/svg" xmlns:xlink="http://www.w3.org/1999/xlink">
<g id="graph0" class="graph" transform="scale(1 1) rotate(0) translate(4 1429)">
<polygon fill="#140e52" stroke="none" points="-4,4 -4,-1429 854.65,-1429 854.65,4 -4,4"/>
<text text-anchor="middle" x="425.33" y="-1389" font-family="verdana" font-size="40.00" fill="#ffffff">Rutile Dust &#45;&gt; Hot Titanium Processing</text>
<!-- source -->
<g id="node1" class="node">
<title>source</title>
<polygon fill="white" stroke="none" points="562.15,-1255.5 137.15,-1255.5 137.15,-1207.5 562.15,-1207.5 562.15,-1255.5"/>
<text text-anchor="start" x="328.15" y="-1240.3" font-family="arial" font-size="14.00">source</text>
<polygon fill="none" stroke="black" points="139.65,-1209.5 139.65,-1230.5 215.65,-1230.5 215.65,-1209.5 139.65,-1209.5"/>
<text text-anchor="start" x="142.65" y="-1216.3" font-family="arial" font-size="14.00">Rutile Dust</text>
<polygon fill="none" stroke="black" points="215.65,-1209.5 215.65,-1230.5 301.65,-1230.5 301.65,-1209.5 215.65,-1209.5"/>
<text text-anchor="start" x="218.65" y="-1216.3" font-family="arial" font-size="14.00">Carbon Dust</text>
<polygon fill="none" stroke="black" points="301.65,-1209.5 301.65,-1230.5 360.65,-1230.5 360.65,-1209.5 301.65,-1209.5"/>
<text text-anchor="start" x="304.65" y="-1216.3" font-family="arial" font-size="14.00">Chlorine</text>
<polygon fill="none" stroke="black" points="360.65,-1209.5 360.65,-1230.5 448.65,-1230.5 448.65,-1209.5 360.65,-1209.5"/>
<text text-anchor="start" x="363.65" y="-1216.3" font-family="arial" font-size="14.00">Sodium Dust</text>
<polygon fill="none" stroke="black" points="448.65,-1209.5 448.65,-1230.5 560.65,-1230.5 560.65,-1209.5 448.65,-1209.5"/>
<text text-anchor="start" x="451.65" y="-1216.3" font-family="arial" font-size="14.00">Magnesium Dust</text>
</g>
<!-- 0 -->
<g id="node3" class="node">
<title>0</title>
<polygon fill="lightcyan" stroke="none" points="383.15,-982 114.15,-982 114.15,-864 383.15,-864 383.15,-982"/>
<polygon fill="none" stroke="black" points="116.65,-959 116.65,-980 207.65,-980 207.65,-959 116.65,-959"/>
<text text-anchor="start" x="127.15" y="-965.8" font-family="arial" font-size="14.00">Rutile Dust</text>
<polygon fill="none" stroke="black" points="207.65,-959 207.65,-980 308.65,-980 308.65,-959 207.65,-959"/>
<text text-anchor="start" x="218.15" y="-965.8" font-family="arial" font-size="14.00">Carbon Dust</text>
<polygon fill="none" stroke="black" points="308.65,-959 308.65,-980 381.65,-980 381.65,-959 308.65,-959"/>
<text text-anchor="start" x="318.65" y="-965.8" font-family="arial" font-size="14.00">Chlorine</text>
<text text-anchor="start" x="145.15" y="-941.8" font-family="arial" font-size="14.00">1.0x HV Large Chemical Reactor</text>
<text text-anchor="start" x="209.15" y="-926.8" font-family="arial" font-size="14.00">Cycle: 20.0s</text>
<text text-anchor="start" x="183.65" y="-911.8" font-family="arial" font-size="14.00">Amoritized: 480 EU/t</text>
<text text-anchor="start" x="178.15" y="-896.8" font-family="arial" font-size="14.00">Per Machine: 480 EU/t</text>
<polygon fill="none" stroke="black" points="116.65,-866 116.65,-887 234.65,-887 234.65,-866 116.65,-866"/>
<text text-anchor="start" x="119.65" y="-872.8" font-family="arial" font-size="14.00">Carbon Monoxide</text>
<polygon fill="none" stroke="black" points="234.65,-866 234.65,-887 381.65,-887 381.65,-866 234.65,-866"/>
<text text-anchor="start" x="237.65" y="-872.8" font-family="arial" font-size="14.00">Titanium Tetrachloride</text>
</g>
<!-- source&#45;&gt;0 -->
<g id="edge1" class="edge">
<title>source:s&#45;&gt;0:n</title>
<path fill="none" stroke="#42d6a4" d="M177.64,-1203.51C177.14,-1110.09 162.84,-1082.79 161.72,-992.35"/>
<polygon fill="#42d6a4" stroke="#42d6a4" points="182.65,-1207.49 172.65,-1207.51 172.64,-1205.51 182.64,-1205.49 182.65,-1207.49"/>
<polyline fill="none" stroke="#42d6a4" points="177.65,-1208.5 177.64,-1203.5"/>
<polygon fill="#42d6a4" stroke="#42d6a4" points="165.22,-992.49 161.66,-982.51 158.22,-992.53 165.22,-992.49"/>
<text text-anchor="middle" x="140.08" y="-990.23" font-family="arial" font-size="13.00" fill="#63fff6">(0.05/s)</text>
<text text-anchor="middle" x="199.27" y="-1192.54" font-family="arial" font-size="13.00" fill="#63fff6">(0.05/s)</text>
</g>
<!-- source&#45;&gt;0 -->
<g id="edge2" class="edge">
<title>source:s&#45;&gt;0:n</title>
<path fill="none" stroke="#f8f38d" d="M258.65,-1203.53C258.65,-1110.32 258.65,-1082.58 258.65,-992.33"/>
<polygon fill="#f8f38d" stroke="#f8f38d" points="263.65,-1207.5 253.65,-1207.5 253.65,-1205.5 263.65,-1205.5 263.65,-1207.5"/>
<polyline fill="none" stroke="#f8f38d" points="258.65,-1208.5 258.65,-1203.5"/>
<polygon fill="#f8f38d" stroke="#f8f38d" points="262.15,-992.51 258.65,-982.51 255.15,-992.51 262.15,-992.51"/>
<text text-anchor="middle" x="237" y="-990.1" font-family="arial" font-size="13.00" fill="#ffffd3">(0.1/s)</text>
<text text-anchor="middle" x="280.3" y="-1192.6" font-family="arial" font-size="13.00" fill="#ffffd3">(0.1/s)</text>
</g>
<!-- source&#45;&gt;0 -->
<g id="edge3" class="edge">
<title>source:s&#45;&gt;0:n</title>
<path fill="none" stroke="#ff6961" d="M330.66,-1203.52C331.13,-1110.12 344.54,-1082.76 345.59,-992.35"/>
<polygon fill="#ff6961" stroke="#ff6961" points="335.65,-1207.51 325.65,-1207.49 325.66,-1205.49 335.66,-1205.51 335.65,-1207.51"/>
<polyline fill="none" stroke="#ff6961" points="330.65,-1208.5 330.66,-1203.5"/>
<polygon fill="#ff6961" stroke="#ff6961" points="349.08,-992.53 345.64,-982.51 342.08,-992.49 349.08,-992.53"/>
<text text-anchor="middle" x="323.93" y="-989.98" font-family="arial" font-size="13.00" fill="#ff9d91">(200.0/s)</text>
<text text-anchor="middle" x="352.33" y="-1192.65" font-family="arial" font-size="13.00" fill="#ff9d91">(200.0/s)</text>
</g>
<!-- 2 -->
<g id="node5" class="node">
<title>2</title>
<polygon fill="chartreuse" stroke="none" points="507.65,-756 213.65,-756 213.65,-608 507.65,-608 507.65,-756"/>
<polygon fill="none" stroke="black" points="215.65,-733 215.65,-754 343.65,-754 343.65,-733 215.65,-733"/>
<text text-anchor="start" x="226.65" y="-739.8" font-family="arial" font-size="14.00">Magnesium Dust</text>
<polygon fill="none" stroke="black" points="343.65,-733 343.65,-754 505.65,-754 505.65,-733 343.65,-733"/>
<text text-anchor="start" x="354.15" y="-739.8" font-family="arial" font-size="14.00">Titanium Tetrachloride</text>
<text text-anchor="start" x="264.15" y="-715.8" font-family="arial" font-size="14.00">1.0x EV Electric Blast Furnace</text>
<text text-anchor="start" x="320.65" y="-700.8" font-family="arial" font-size="14.00">Cycle: 20.0s</text>
<text text-anchor="start" x="288.15" y="-685.8" font-family="arial" font-size="14.00">Amoritized: 1.92K EU/t</text>
<text text-anchor="start" x="282.65" y="-670.8" font-family="arial" font-size="14.00">Per Machine: 1.92K EU/t</text>
<text text-anchor="start" x="302.15" y="-655.8" font-family="arial" font-size="14.00">Base Heat: 2140K</text>
<text text-anchor="start" x="317.15" y="-640.8" font-family="arial" font-size="14.00">Coils: Kanthal</text>
<polygon fill="none" stroke="black" points="215.65,-610 215.65,-631 336.65,-631 336.65,-610 215.65,-610"/>
<text text-anchor="start" x="218.65" y="-616.8" font-family="arial" font-size="14.00">Hot Titanium Ingot</text>
<polygon fill="none" stroke="black" points="336.65,-610 336.65,-631 505.65,-631 505.65,-610 336.65,-610"/>
<text text-anchor="start" x="339.65" y="-616.8" font-family="arial" font-size="14.00">Magnesium Chloride Dust</text>
</g>
<!-- source&#45;&gt;2 -->
<g id="edge15" class="edge">
<title>source:s&#45;&gt;2:n</title>
<path fill="none" stroke="#59adf6" d="M504.65,-1203.85C504.29,-1047.59 485.49,-997.73 400.65,-864 364.07,-806.34 288.83,-824.88 280.42,-766.4"/>
<polygon fill="#59adf6" stroke="#59adf6" points="509.65,-1207.49 499.65,-1207.51 499.65,-1205.51 509.65,-1205.49 509.65,-1207.49"/>
<polyline fill="none" stroke="#59adf6" points="504.65,-1208.5 504.64,-1203.5"/>
<polygon fill="#59adf6" stroke="#59adf6" points="283.92,-766.25 279.75,-756.51 276.93,-766.72 283.92,-766.25"/>
<text text-anchor="middle" x="258.89" y="-765.53" font-family="arial" font-size="13.00" fill="#85ffff">(0.1/s)</text>
<text text-anchor="middle" x="526.29" y="-1192.58" font-family="arial" font-size="13.00" fill="#85ffff">(0.1/s)</text>
</g>
<!-- 3 -->
<g id="node6" class="node">
<title>3</title>
<polygon fill="lightcyan" stroke="none" points="602.15,-500 341.15,-500 341.15,-382 602.15,-382 602.15,-500"/>
<polygon fill="none" stroke="black" points="343.65,-477 343.65,-498 512.65,-498 512.65,-477 343.65,-477"/>
<text text-anchor="start" x="346.65" y="-483.8" font-family="arial" font-size="14.00">Magnesium Chloride Dust</text>
<polygon fill="none" stroke="black" points="512.65,-477 512.65,-498 600.65,-498 600.65,-477 512.65,-477"/>
<text text-anchor="start" x="515.65" y="-483.8" font-family="arial" font-size="14.00">Sodium Dust</text>
<text text-anchor="start" x="388.15" y="-459.8" font-family="arial" font-size="14.00">1.0x HV Chemical Reactor</text>
<text text-anchor="start" x="432.15" y="-444.8" font-family="arial" font-size="14.00">Cycle: 10.0s</text>
<text text-anchor="start" x="406.65" y="-429.8" font-family="arial" font-size="14.00">Amoritized: 300 EU/t</text>
<text text-anchor="start" x="401.15" y="-414.8" font-family="arial" font-size="14.00">Per Machine: 300 EU/t</text>
<polygon fill="none" stroke="black" points="343.65,-384 343.65,-405 512.65,-405 512.65,-384 343.65,-384"/>
<text text-anchor="start" x="375.15" y="-390.8" font-family="arial" font-size="14.00">Magnesium Dust</text>
<polygon fill="none" stroke="black" points="512.65,-384 512.65,-405 600.65,-405 600.65,-384 512.65,-384"/>
<text text-anchor="start" x="544.15" y="-390.8" font-family="arial" font-size="14.00">Salt</text>
</g>
<!-- source&#45;&gt;3 -->
<g id="edge10" class="edge">
<title>source:s&#45;&gt;3:n</title>
<path fill="none" stroke="#ffb480" d="M405.17,-1203.78C413.55,-1151.73 520.91,-780.55 525.65,-756 546.71,-646.9 556.01,-616.13 556.62,-510.5"/>
<polygon fill="#ffb480" stroke="#ffb480" points="409.73,-1208.05 399.79,-1206.96 400.01,-1204.97 409.95,-1206.06 409.73,-1208.05"/>
<polyline fill="none" stroke="#ffb480" points="404.65,-1208.5 405.2,-1203.53"/>
<polygon fill="#ffb480" stroke="#ffb480" points="560.12,-510.52 556.65,-500.51 553.12,-510.5 560.12,-510.52"/>
<text text-anchor="middle" x="534.96" y="-508.04" font-family="arial" font-size="13.00" fill="#ffffc0">(0.2/s)</text>
<text text-anchor="middle" x="427.54" y="-1195.03" font-family="arial" font-size="13.00" fill="#ffffc0">(0.2/s)</text>
</g>
<!-- sink -->
<g id="node2" class="node">
<title>sink</title>
<polygon fill="white" stroke="none" points="737.65,-48 17.65,-48 17.65,0 737.65,0 737.65,-48"/>
<polygon fill="none" stroke="black" points="19.65,-25 19.65,-46 74.65,-46 74.65,-25 19.65,-25"/>
<text text-anchor="start" x="22.65" y="-31.8" font-family="arial" font-size="14.00">Oxygen</text>
<polygon fill="none" stroke="black" points="74.65,-25 74.65,-46 225.65,-46 225.65,-25 74.65,-25"/>
<text text-anchor="start" x="77.65" y="-31.8" font-family="arial" font-size="14.00">(Recycle) Carbon Dust</text>
<polygon fill="none" stroke="black" points="225.65,-25 225.65,-46 346.65,-46 346.65,-25 225.65,-25"/>
<text text-anchor="start" x="228.65" y="-31.8" font-family="arial" font-size="14.00">Hot Titanium Ingot</text>
<polygon fill="none" stroke="black" points="346.65,-25 346.65,-46 470.65,-46 470.65,-25 346.65,-25"/>
<text text-anchor="start" x="349.65" y="-31.8" font-family="arial" font-size="14.00">(Recycle) Chlorine</text>
<polygon fill="none" stroke="black" points="470.65,-25 470.65,-46 623.65,-46 623.65,-25 470.65,-25"/>
<text text-anchor="start" x="473.65" y="-31.8" font-family="arial" font-size="14.00">(Recycle) Sodium Dust</text>
<polygon fill="none" stroke="black" points="623.65,-25 623.65,-46 735.65,-46 735.65,-25 623.65,-25"/>
<text text-anchor="start" x="626.65" y="-31.8" font-family="arial" font-size="14.00">Magnesium Dust</text>
<text text-anchor="start" x="365.15" y="-7.8" font-family="arial" font-size="14.00">sink</text>
</g>
<!-- 1 -->
<g id="node4" class="node">
<title>1</title>
<polygon fill="lightcyan" stroke="none" points="227.65,-274 17.65,-274 17.65,-156 227.65,-156 227.65,-274"/>
<polygon fill="none" stroke="black" points="19.65,-251 19.65,-272 225.65,-272 225.65,-251 19.65,-251"/>
<text text-anchor="start" x="66.65" y="-257.8" font-family="arial" font-size="14.00">Carbon Monoxide</text>
<text text-anchor="start" x="53.15" y="-233.8" font-family="arial" font-size="14.00">0.56x MV Electrolyzer</text>
<text text-anchor="start" x="86.65" y="-218.8" font-family="arial" font-size="14.00">Cycle: 5.6s</text>
<text text-anchor="start" x="61.15" y="-203.8" font-family="arial" font-size="14.00">Amoritized: 34 EU/t</text>
<text text-anchor="start" x="55.65" y="-188.8" font-family="arial" font-size="14.00">Per Machine: 60 EU/t</text>
<polygon fill="none" stroke="black" points="19.65,-158 19.65,-179 74.65,-179 74.65,-158 19.65,-158"/>
<text text-anchor="start" x="22.65" y="-164.8" font-family="arial" font-size="14.00">Oxygen</text>
<polygon fill="none" stroke="black" points="74.65,-158 74.65,-179 225.65,-179 225.65,-158 74.65,-158"/>
<text text-anchor="start" x="77.65" y="-164.8" font-family="arial" font-size="14.00">(Recycle) Carbon Dust</text>
</g>
<!-- 0&#45;&gt;1 -->
<g id="edge4" class="edge">
<title>0:s&#45;&gt;1:n</title>
<path fill="none" stroke="#ffb480" d="M175.65,-860.38C175.04,-603.9 124.17,-537.55 122.68,-284.41"/>
<polygon fill="#ffb480" stroke="#ffb480" points="180.65,-863.99 170.65,-864.01 170.65,-862.01 180.65,-861.99 180.65,-863.99"/>
<polyline fill="none" stroke="#ffb480" points="175.65,-865 175.64,-860"/>
<polygon fill="#ffb480" stroke="#ffb480" points="126.18,-284.5 122.66,-274.51 119.18,-284.52 126.18,-284.5"/>
<text text-anchor="middle" x="101.04" y="-282.16" font-family="arial" font-size="13.00" fill="#ffffc0">(100.0/s)</text>
<text text-anchor="middle" x="197.29" y="-849.07" font-family="arial" font-size="13.00" fill="#ffffc0">(100.0/s)</text>
</g>
<!-- 0&#45;&gt;2 -->
<g id="edge5" class="edge">
<title>0:s&#45;&gt;2:n</title>
<path fill="none" stroke="#f8f38d" d="M308.84,-860.17C313.72,-799.19 412.05,-821.31 423.55,-766.22"/>
<polygon fill="#f8f38d" stroke="#f8f38d" points="313.69,-864.2 303.69,-863.81 303.77,-861.81 313.76,-862.2 313.69,-864.2"/>
<polyline fill="none" stroke="#f8f38d" points="308.65,-865 308.85,-860"/>
<polygon fill="#f8f38d" stroke="#f8f38d" points="427.01,-766.8 424.5,-756.51 420.05,-766.12 427.01,-766.8"/>
<text text-anchor="middle" x="401.89" y="-761.94" font-family="arial" font-size="13.00" fill="#ffffd3">(50.0/s)</text>
<text text-anchor="middle" x="330.77" y="-849.95" font-family="arial" font-size="13.00" fill="#ffffd3">(50.0/s)</text>
</g>
<!-- 1&#45;&gt;sink -->
<g id="edge6" class="edge">
<title>1:s&#45;&gt;sink:n</title>
<path fill="none" stroke="#c780e8" d="M46.65,-152.25C46.65,-111.13 46.65,-96.74 46.65,-58.47"/>
<polygon fill="#c780e8" stroke="#c780e8" points="51.65,-156 41.65,-156 41.65,-154 51.65,-154 51.65,-156"/>
<polyline fill="none" stroke="#c780e8" points="46.65,-157 46.65,-152"/>
<polygon fill="#c780e8" stroke="#c780e8" points="50.15,-58.51 46.65,-48.51 43.15,-58.51 50.15,-58.51"/>
<text text-anchor="middle" x="25" y="-56.1" font-family="arial" font-size="13.00" fill="#ffc0ff">(100.0/s)</text>
<text text-anchor="middle" x="68.3" y="-141.1" font-family="arial" font-size="13.00" fill="#ffc0ff">(100.0/s)</text>
</g>
<!-- 1&#45;&gt;sink -->
<g id="edge7" class="edge">
<title>1:s&#45;&gt;sink:n</title>
<path fill="none" stroke="#59adf6" d="M150.65,-152.25C150.59,-111.12 149.8,-96.74 149.67,-58.47"/>
<polygon fill="#59adf6" stroke="#59adf6" points="155.65,-156 145.65,-156 145.65,-154 155.65,-154 155.65,-156"/>
<polyline fill="none" stroke="#59adf6" points="150.65,-157 150.65,-152"/>
<polygon fill="#59adf6" stroke="#59adf6" points="153.17,-58.51 149.65,-48.51 146.17,-58.52 153.17,-58.51"/>
<text text-anchor="middle" x="128.02" y="-56.14" font-family="arial" font-size="13.00" fill="#85ffff">(0.1/s)</text>
<text text-anchor="middle" x="172.29" y="-141.09" font-family="arial" font-size="13.00" fill="#85ffff">(0.1/s)</text>
</g>
<!-- 2&#45;&gt;sink -->
<g id="edge8" class="edge">
<title>2:s&#45;&gt;sink:n</title>
<path fill="none" stroke="#08cad1" d="M275.65,-604.27C275.78,-362.23 285.34,-297.25 285.64,-58.5"/>
<polygon fill="#08cad1" stroke="#08cad1" points="280.65,-608 270.65,-608 270.65,-606 280.65,-606 280.65,-608"/>
<polyline fill="none" stroke="#08cad1" points="275.65,-609 275.65,-604"/>
<polygon fill="#08cad1" stroke="#08cad1" points="289.14,-58.52 285.65,-48.51 282.14,-58.51 289.14,-58.52"/>
<text text-anchor="middle" x="263.99" y="-56.09" font-family="arial" font-size="13.00" fill="#0cffff">(0.05/s)</text>
<text text-anchor="middle" x="297.3" y="-593.11" font-family="arial" font-size="13.00" fill="#0cffff">(0.05/s)</text>
</g>
<!-- 2&#45;&gt;3 -->
<g id="edge9" class="edge">
<title>2:s&#45;&gt;3:n</title>
<path fill="none" stroke="#42d6a4" d="M421.67,-604.24C422.01,-563.07 426.73,-548.78 427.53,-510.48"/>
<polygon fill="#42d6a4" stroke="#42d6a4" points="426.65,-608.02 416.65,-607.98 416.66,-605.98 426.66,-606.02 426.65,-608.02"/>
<polyline fill="none" stroke="#42d6a4" points="421.65,-609 421.67,-604"/>
<polygon fill="#42d6a4" stroke="#42d6a4" points="431.03,-510.55 427.64,-500.51 424.03,-510.48 431.03,-510.55"/>
<text text-anchor="middle" x="405.87" y="-507.88" font-family="arial" font-size="13.00" fill="#63fff6">(0.3/s)</text>
<text text-anchor="middle" x="443.35" y="-593.19" font-family="arial" font-size="13.00" fill="#63fff6">(0.3/s)</text>
</g>
<!-- 3&#45;&gt;sink -->
<g id="edge14" class="edge">
<title>3:s&#45;&gt;sink:n</title>
<path fill="none" stroke="#59adf6" d="M427.76,-378.1C432.4,-278.1 581.26,-359.51 643.65,-274 701.57,-194.63 681.37,-152.43 679.75,-58.42"/>
<polygon fill="#59adf6" stroke="#59adf6" points="432.67,-382.11 422.67,-381.89 422.72,-379.89 432.72,-380.11 432.67,-382.11"/>
<polyline fill="none" stroke="#59adf6" points="427.65,-383 427.76,-378"/>
<polygon fill="#59adf6" stroke="#59adf6" points="683.25,-58.48 679.66,-48.51 676.25,-58.54 683.25,-58.48"/>
<text text-anchor="middle" x="658.11" y="-56.29" font-family="arial" font-size="13.00" fill="#85ffff">(0.1/s)</text>
<text text-anchor="middle" x="449.58" y="-367.59" font-family="arial" font-size="13.00" fill="#85ffff">(0.1/s)</text>
</g>
<!-- 4 -->
<g id="node7" class="node">
<title>4</title>
<polygon fill="lightcyan" stroke="none" points="625.15,-274 344.15,-274 344.15,-156 625.15,-156 625.15,-274"/>
<polygon fill="none" stroke="black" points="346.65,-251 346.65,-272 623.65,-272 623.65,-251 346.65,-251"/>
<text text-anchor="start" x="472.65" y="-257.8" font-family="arial" font-size="14.00">Salt</text>
<text text-anchor="start" x="421.65" y="-233.8" font-family="arial" font-size="14.00">3.2x LV Electrolyzer</text>
<text text-anchor="start" x="445.15" y="-218.8" font-family="arial" font-size="14.00">Cycle: 16.0s</text>
<text text-anchor="start" x="423.65" y="-203.8" font-family="arial" font-size="14.00">Amoritized: 96 EU/t</text>
<text text-anchor="start" x="418.15" y="-188.8" font-family="arial" font-size="14.00">Per Machine: 30 EU/t</text>
<polygon fill="none" stroke="black" points="346.65,-158 346.65,-179 470.65,-179 470.65,-158 346.65,-158"/>
<text text-anchor="start" x="349.65" y="-164.8" font-family="arial" font-size="14.00">(Recycle) Chlorine</text>
<polygon fill="none" stroke="black" points="470.65,-158 470.65,-179 623.65,-179 623.65,-158 470.65,-158"/>
<text text-anchor="start" x="473.65" y="-164.8" font-family="arial" font-size="14.00">(Recycle) Sodium Dust</text>
</g>
<!-- 3&#45;&gt;4 -->
<g id="edge11" class="edge">
<title>3:s&#45;&gt;4:n</title>
<path fill="none" stroke="#08cad1" d="M556.47,-378.05C552.83,-328.95 494.99,-329.15 486.65,-284.34"/>
<polygon fill="#08cad1" stroke="#08cad1" points="561.61,-381.82 551.62,-382.18 551.55,-380.18 561.54,-379.82 561.61,-381.82"/>
<polyline fill="none" stroke="#08cad1" points="556.65,-383 556.47,-378"/>
<polygon fill="#08cad1" stroke="#08cad1" points="490.15,-284.16 485.78,-274.51 483.18,-284.78 490.15,-284.16"/>
<text text-anchor="middle" x="465.18" y="-283.95" font-family="arial" font-size="13.00" fill="#0cffff">(0.4/s)</text>
<text text-anchor="middle" x="577.83" y="-366.32" font-family="arial" font-size="13.00" fill="#0cffff">(0.4/s)</text>
</g>
<!-- 4&#45;&gt;sink -->
<g id="edge12" class="edge">
<title>4:s&#45;&gt;sink:n</title>
<path fill="none" stroke="#ff6961" d="M408.65,-152.25C408.65,-111.13 408.65,-96.74 408.65,-58.47"/>
<polygon fill="#ff6961" stroke="#ff6961" points="413.65,-156 403.65,-156 403.65,-154 413.65,-154 413.65,-156"/>
<polyline fill="none" stroke="#ff6961" points="408.65,-157 408.65,-152"/>
<polygon fill="#ff6961" stroke="#ff6961" points="412.15,-58.51 408.65,-48.51 405.15,-58.51 412.15,-58.51"/>
<text text-anchor="middle" x="387" y="-56.1" font-family="arial" font-size="13.00" fill="#ff9d91">(200.0/s)</text>
<text text-anchor="middle" x="430.3" y="-141.1" font-family="arial" font-size="13.00" fill="#ff9d91">(200.0/s)</text>
</g>
<!-- 4&#45;&gt;sink -->
<g id="edge13" class="edge">
<title>4:s&#45;&gt;sink:n</title>
<path fill="none" stroke="#9d94ff" d="M547.65,-152.25C547.65,-111.13 547.65,-96.74 547.65,-58.47"/>
<polygon fill="#9d94ff" stroke="#9d94ff" points="552.65,-156 542.65,-156 542.65,-154 552.65,-154 552.65,-156"/>
<polyline fill="none" stroke="#9d94ff" points="547.65,-157 547.65,-152"/>
<polygon fill="#9d94ff" stroke="#9d94ff" points="551.15,-58.51 547.65,-48.51 544.15,-58.51 551.15,-58.51"/>
<text text-anchor="middle" x="526" y="-56.1" font-family="arial" font-size="13.00" fill="#ebdeff">(0.2/s)</text>
<text text-anchor="middle" x="569.3" y="-141.1" font-family="arial" font-size="13.00" fill="#ebdeff">(0.2/s)</text>
</g>
<!-- total_io_node -->
<g id="node8" class="node">
<title>total_io_node</title>
<polygon fill="#140e52" stroke="#ffffff" points="850.65,-1373 598.65,-1373 598.65,-1090 850.65,-1090 850.65,-1373"/>
<text text-anchor="start" x="610.65" y="-1354.3" font-family="arial" font-weight="bold" font-size="14.00" fill="white">Summary</text>
<text text-anchor="start" x="610.65" y="-1332.3" font-family="arial" font-size="14.00" fill="#ff6961">█ Chlorine</text>
<text text-anchor="start" x="785.65" y="-1332.3" font-family="arial" font-size="14.00" fill="crimson">&#45;200.0/s</text>
<text text-anchor="start" x="610.65" y="-1311.3" font-family="arial" font-size="14.00" fill="#ffb480">█ Sodium Dust</text>
<text text-anchor="start" x="801.65" y="-1311.3" font-family="arial" font-size="14.00" fill="crimson">&#45;0.2/s</text>
<text text-anchor="start" x="610.65" y="-1290.3" font-family="arial" font-size="14.00" fill="#f8f38d">█ Carbon Dust</text>
<text text-anchor="start" x="801.65" y="-1290.3" font-family="arial" font-size="14.00" fill="crimson">&#45;0.1/s</text>
<text text-anchor="start" x="610.65" y="-1269.3" font-family="arial" font-size="14.00" fill="#42d6a4">█ Rutile Dust</text>
<text text-anchor="start" x="793.65" y="-1269.3" font-family="arial" font-size="14.00" fill="crimson">&#45;0.05/s</text>
<text text-anchor="start" x="610.65" y="-1248.3" font-family="arial" font-size="14.00" fill="#08cad1">█ Hot Titanium Ingot</text>
<text text-anchor="start" x="798.65" y="-1248.3" font-family="arial" font-size="14.00" fill="chartreuse">0.05/s</text>
<text text-anchor="start" x="610.65" y="-1227.3" font-family="arial" font-size="14.00" fill="#59adf6">█ (Recycle) Carbon Dust</text>
<text text-anchor="start" x="806.65" y="-1227.3" font-family="arial" font-size="14.00" fill="chartreuse">0.1/s</text>
<text text-anchor="start" x="610.65" y="-1206.3" font-family="arial" font-size="14.00" fill="#9d94ff">█ (Recycle) Sodium Dust</text>
<text text-anchor="start" x="806.65" y="-1206.3" font-family="arial" font-size="14.00" fill="chartreuse">0.2/s</text>
<text text-anchor="start" x="610.65" y="-1185.3" font-family="arial" font-size="14.00" fill="#c780e8">█ Oxygen</text>
<text text-anchor="start" x="789.65" y="-1185.3" font-family="arial" font-size="14.00" fill="chartreuse">100.0/s</text>
<text text-anchor="start" x="610.65" y="-1164.3" font-family="arial" font-size="14.00" fill="#ff6961">█ (Recycle) Chlorine</text>
<text text-anchor="start" x="789.65" y="-1164.3" font-family="arial" font-size="14.00" fill="chartreuse">200.0/s</text>
<text text-anchor="start" x="610.65" y="-1143.3" font-family="arial" font-size="14.00" fill="white">Input EU/t:</text>
<text text-anchor="start" x="795.65" y="-1143.3" font-family="arial" font-size="14.00" fill="crimson">&#45;2.83K</text>
<text text-anchor="start" x="610.65" y="-1122.3" font-family="arial" font-size="14.00" fill="white">Total machine count:</text>
<text text-anchor="start" x="801.65" y="-1122.3" font-family="arial" font-size="14.00" fill="chartreuse">10.76</text>
<text text-anchor="start" x="610.65" y="-1101.3" font-family="arial" font-size="14.00" fill="white">Peak power draw:</text>
<text text-anchor="start" x="776.65" y="-1101.3" font-family="arial" font-size="14.00" fill="crimson">2.49A EV</text>
<polygon fill="#ffffff" stroke="#ffffff" points="606.65,-1346.5 606.65,-1346.5 842.65,-1346.5 842.65,-1346.5 606.65,-1346.5"/>
<polygon fill="#ffffff" stroke="#ffffff" points="606.65,-1157.5 606.65,-1157.5 773.65,-1157.5 773.65,-1157.5 606.65,-1157.5"/>
<polygon fill="#ffffff" stroke="#ffffff" points="773.65,-1157.5 773.65,-1157.5 842.65,-1157.5 842.65,-1157.5 773.65,-1157.5"/>
</g>
</g>
</svg>
